<?xml version="1.0" encoding="UTF-8" standalone="no"?><!DOCTYPE svg PUBLIC "-//W3C//DTD SVG 1.1//EN" "http://www.w3.org/Graphics/SVG/1.1/DTD/svg11.dtd"><svg width="100%" height="100%" viewBox="0 0 600 119" version="1.1" xmlns="http://www.w3.org/2000/svg" xmlns:xlink="http://www.w3.org/1999/xlink" xml:space="preserve" xmlns:serif="http://www.serif.com/" style="fill-rule:evenodd;clip-rule:evenodd;stroke-linejoin:round;stroke-miterlimit:1.41421;"><path d="M112.202,94.054l-16.491,-0.004c0,-0.003 0,-0.007 0,-0.01c0,-8.789 -7.125,-15.914 -15.914,-15.914c-8.788,0 -15.913,7.125 -15.913,15.914l0,0.01l-16.492,0.004c0,0 -1.377,-15.203 -2.067,-16.518c-0.688,-1.315 -2.254,-2.032 -4.633,-1.688c-2.049,0.297 -8.078,5.736 -16.091,6.415l-2.243,-5.177c0,0 5.402,-1.613 6.686,-7.5c0.432,-1.982 -0.94,-6.826 -3.006,-11.898c-2.067,-5.073 -3.248,-12.731 1.418,-19.973c9.526,-14.788 36.032,-14.048 52.341,-11.573c10.252,1.557 26.565,7.322 33.605,26.635c7.04,19.314 -1.2,41.277 -1.2,41.277Z" style="fill:#fff;"/><path d="M112.202,94.054l-16.491,-0.004c0,-0.003 0,-0.007 0,-0.01c0,-8.789 -7.125,-15.914 -15.914,-15.914c-8.788,0 -15.913,7.125 -15.913,15.914l0,0.01l-16.492,0.004c0,0 -1.377,-15.203 -2.067,-16.518c-0.688,-1.315 -2.254,-2.032 -4.633,-1.688c-2.049,0.297 -8.078,5.736 -16.091,6.415l-2.243,-5.177c0,0 5.402,-1.613 6.686,-7.5c0.432,-1.982 -0.94,-6.826 -3.006,-11.898c-2.067,-5.073 -3.248,-12.731 1.418,-19.973c9.526,-14.788 36.032,-14.048 52.341,-11.573c10.252,1.557 26.565,7.322 33.605,26.635c7.04,19.314 -1.2,41.277 -1.2,41.277m-3.298,-94.054l-79.203,0c-16.403,0 -29.701,13.298 -29.701,29.701l0,59.402c0,16.404 13.298,29.702 29.701,29.702l79.203,0c16.404,0 29.701,-13.298 29.701,-29.702l0,-59.402c0,-16.403 -13.297,-29.701 -29.701,-29.701" style="fill:#5f479a;fill-rule:nonzero;"/><path d="M205.227,67.405l0,-25.713l-8.182,18.082l-7.15,0l-8.182,-18.082l0,25.713l-13.406,0l0,-48.814l14.644,0l10.519,22.963l10.588,-22.963l14.576,0l0,48.814l-13.407,0Z" style="fill:#5f479a;fill-rule:nonzero;"/><path d="M236.233,43.067c0,1.65 0.23,3.243 0.689,4.778c0.456,1.537 1.144,2.899 2.062,4.091c0.916,1.192 2.073,2.155 3.472,2.887c1.398,0.734 3.06,1.101 4.985,1.101c1.924,0 3.597,-0.378 5.018,-1.135c1.42,-0.756 2.578,-1.741 3.472,-2.957c0.894,-1.213 1.558,-2.6 1.994,-4.159c0.435,-1.557 0.653,-3.139 0.653,-4.743c0,-1.651 -0.23,-3.243 -0.687,-4.779c-0.459,-1.535 -1.158,-2.888 -2.097,-4.057c-0.94,-1.168 -2.109,-2.107 -3.506,-2.818c-1.4,-0.711 -3.038,-1.066 -4.917,-1.066c-1.925,0 -3.587,0.368 -4.984,1.1c-1.399,0.734 -2.555,1.708 -3.472,2.922c-0.918,1.215 -1.593,2.59 -2.029,4.125c-0.436,1.537 -0.653,3.106 -0.653,4.71m11.07,24.751c-3.713,0 -7.082,-0.711 -10.107,-2.132c-3.025,-1.42 -5.615,-3.288 -7.769,-5.603c-2.155,-2.314 -3.827,-4.961 -5.019,-7.941c-1.192,-2.979 -1.788,-6.05 -1.788,-9.212c0,-3.209 0.619,-6.303 1.857,-9.283c1.237,-2.979 2.967,-5.603 5.191,-7.872c2.223,-2.269 4.858,-4.079 7.906,-5.431c3.048,-1.352 6.383,-2.028 10.004,-2.028c3.712,0 7.082,0.711 10.107,2.131c3.025,1.421 5.614,3.301 7.768,5.638c2.155,2.338 3.816,4.996 4.985,7.975c1.169,2.98 1.754,6.028 1.754,9.144c0,3.209 -0.62,6.291 -1.857,9.247c-1.237,2.957 -2.956,5.57 -5.156,7.838c-2.201,2.269 -4.825,4.091 -7.873,5.466c-3.048,1.375 -6.383,2.063 -10.003,2.063" style="fill:#5f479a;fill-rule:nonzero;"/><path d="M305.949,42.929c0,-1.879 -0.253,-3.598 -0.756,-5.156c-0.505,-1.558 -1.227,-2.888 -2.166,-3.988c-0.94,-1.1 -2.098,-1.96 -3.472,-2.578c-1.375,-0.619 -2.911,-0.928 -4.607,-0.928l-5.362,0l0,25.438l5.362,0c1.742,0 3.3,-0.32 4.676,-0.962c1.375,-0.642 2.532,-1.535 3.471,-2.682c0.94,-1.145 1.651,-2.497 2.132,-4.056c0.481,-1.558 0.722,-3.254 0.722,-5.088m-29.77,24.476l0,-48.814l18.769,0c4.034,0 7.586,0.642 10.657,1.925c3.071,1.284 5.638,3.025 7.7,5.225c2.063,2.2 3.621,4.779 4.676,7.735c1.054,2.956 1.581,6.108 1.581,9.453c0,3.713 -0.585,7.071 -1.753,10.073c-1.169,3.002 -2.831,5.569 -4.985,7.7c-2.155,2.131 -4.743,3.781 -7.769,4.95c-3.025,1.169 -6.394,1.753 -10.107,1.753l-18.769,0Z" style="fill:#5f479a;fill-rule:nonzero;"/><path d="M358.475,55.717l0,11.688l-34.788,0l0,-48.814l34.169,0l0,11.688l-20.763,0l0,6.875l17.738,0l0,10.863l-17.738,0l0,7.7l21.382,0Z" style="fill:#5f479a;fill-rule:nonzero;"/><path d="M376.419,40.729l8.456,0c0.826,0 1.593,-0.458 2.303,-1.375c0.711,-0.916 1.067,-2.2 1.067,-3.85c0,-1.695 -0.413,-2.991 -1.238,-3.884c-0.825,-0.894 -1.65,-1.341 -2.475,-1.341l-8.113,0l0,10.45Zm-13.407,26.676l0,-48.814l22.413,0c2.384,0 4.583,0.493 6.601,1.478c2.016,0.986 3.747,2.269 5.191,3.85c1.443,1.581 2.578,3.393 3.403,5.431c0.825,2.041 1.237,4.091 1.237,6.154c0,2.843 -0.618,5.489 -1.856,7.941c-1.237,2.452 -2.956,4.458 -5.156,6.016l10.313,17.944l-15.126,0l-8.594,-14.988l-5.019,0l0,14.988l-13.407,0Z" style="fill:#5f479a;fill-rule:nonzero;"/><path d="M421.107,43.41l0,23.995l-13.406,0l0,-48.814l10.45,0l19.594,24.819l0,-24.819l13.407,0l0,48.814l-10.656,0l-19.389,-23.995Z" style="fill:#5f479a;fill-rule:nonzero;"/><path d="M482.503,64.93l-8.457,0l0,-43.864l18.563,0c1.992,0 3.847,0.413 5.513,1.226c1.729,0.846 3.226,1.954 4.451,3.296c1.237,1.355 2.225,2.933 2.937,4.691c0.701,1.734 1.056,3.492 1.056,5.225c0,1.841 -0.338,3.661 -1.005,5.407c-0.67,1.752 -1.615,3.326 -2.809,4.676c-1.169,1.322 -2.611,2.392 -4.288,3.181c-1.652,0.779 -3.505,1.174 -5.511,1.174l-10.45,0l0,14.988Zm9.212,-37.126l-9.212,0l0,15.4l9.556,0c1.053,0 2.619,-0.332 4.108,-1.915c1.169,-1.245 1.736,-3.137 1.736,-5.785c0,-2.784 -0.676,-4.737 -2.068,-5.975c-1.289,-1.145 -2.674,-1.725 -4.12,-1.725Z" style="fill:#fff;fill-rule:nonzero;"/><path d="M523.616,64.93l-8.457,0l0,-43.864l8.457,0l0,18.013l21.313,0l0,-18.013l8.457,0l0,43.864l-8.457,0l0,-19.113l-21.313,0l0,19.113Z" style="fill:#fff;fill-rule:nonzero;"/><path d="M573.462,64.93l-8.457,0l0,-43.864l18.563,0c1.992,0 3.847,0.413 5.513,1.226c1.728,0.846 3.226,1.954 4.451,3.296c1.237,1.355 2.225,2.933 2.937,4.691c0.701,1.734 1.056,3.492 1.056,5.225c0,1.841 -0.338,3.661 -1.005,5.407c-0.67,1.752 -1.615,3.326 -2.809,4.676c-1.169,1.322 -2.611,2.392 -4.288,3.181c-1.652,0.779 -3.506,1.174 -5.511,1.174l-10.45,0l0,14.988Zm9.212,-37.126l-9.212,0l0,15.4l9.556,0c1.053,0 2.619,-0.332 4.108,-1.915c1.169,-1.245 1.736,-3.137 1.736,-5.785c0,-2.784 -0.676,-4.737 -2.069,-5.975c-1.288,-1.145 -2.673,-1.725 -4.119,-1.725Z" style="fill:#fff;fill-rule:nonzero;"/><path d="M484.978,40.729l0,-10.45l6.737,0c0.826,0 1.651,0.367 2.476,1.099c0.825,0.735 1.237,2.109 1.237,4.126c0,1.972 -0.355,3.335 -1.065,4.091c-0.712,0.756 -1.478,1.134 -2.304,1.134l-7.081,0Zm7.631,-22.138l-21.038,0l0,48.814l13.407,0l0,-14.988l7.975,0c2.383,0 4.572,-0.47 6.566,-1.409c1.994,-0.939 3.689,-2.2 5.087,-3.782c1.399,-1.581 2.487,-3.391 3.266,-5.431c0.78,-2.039 1.169,-4.136 1.169,-6.291c0,-2.063 -0.412,-4.113 -1.237,-6.154c-0.826,-2.038 -1.96,-3.85 -3.404,-5.431c-1.443,-1.581 -3.174,-2.864 -5.19,-3.85c-2.018,-0.985 -4.218,-1.478 -6.601,-1.478m-10.106,24.613l9.556,0c1.053,0 2.619,-0.332 4.108,-1.915c1.169,-1.245 1.736,-3.137 1.736,-5.785c0,-2.784 -0.676,-4.737 -2.068,-5.975c-1.289,-1.145 -2.675,-1.725 -4.12,-1.725l-6.737,0l-2.475,0l0,15.4m10.106,-22.138c1.992,0 3.847,0.413 5.513,1.226c1.729,0.846 3.226,1.954 4.451,3.296c1.237,1.355 2.225,2.933 2.937,4.691c0.701,1.734 1.056,3.492 1.056,5.225c0,1.841 -0.338,3.661 -1.005,5.407c-0.67,1.752 -1.615,3.326 -2.809,4.676c-1.169,1.322 -2.611,2.392 -4.288,3.181c-1.652,0.779 -3.506,1.174 -5.511,1.174l-7.975,0l-2.475,0l0,14.988l-8.457,0l0,-43.864l18.563,0" style="fill:#5f479a;fill-rule:nonzero;"/><path d="M555.861,18.591l-13.407,0l0,18.013l-16.363,0l0,-18.013l-13.407,0l0,48.814l13.407,0l0,-19.113l16.363,0l0,19.113l13.407,0l0,-48.814Zm-2.475,2.475l0,43.864l-8.457,0l0,-16.638l0,-2.475l-2.475,0l-16.363,0l-2.475,0l0,19.113l-8.457,0l0,-43.864l8.457,0l0,18.013l21.313,0l0,-2.475l0,-15.538l8.457,0Z" style="fill:#5f479a;fill-rule:nonzero;"/><path d="M575.937,40.729l0,-10.45l6.737,0c0.826,0 1.651,0.367 2.475,1.099c0.826,0.735 1.238,2.109 1.238,4.126c0,1.972 -0.355,3.335 -1.065,4.091c-0.712,0.756 -1.478,1.134 -2.304,1.134l-7.081,0Zm7.631,-22.138l-21.038,0l0,48.814l13.407,0l0,-14.988l7.975,0c2.383,0 4.572,-0.47 6.566,-1.409c1.994,-0.939 3.689,-2.2 5.088,-3.782c1.398,-1.581 2.486,-3.391 3.265,-5.431c0.779,-2.039 1.169,-4.136 1.169,-6.291c0,-2.063 -0.412,-4.113 -1.237,-6.154c-0.826,-2.038 -1.96,-3.85 -3.404,-5.431c-1.443,-1.581 -3.174,-2.864 -5.19,-3.85c-2.018,-0.985 -4.218,-1.478 -6.601,-1.478m-10.106,24.613l9.556,0c1.053,0 2.619,-0.332 4.109,-1.915c1.168,-1.245 1.735,-3.137 1.735,-5.785c0,-2.784 -0.676,-4.737 -2.069,-5.975c-1.288,-1.145 -2.674,-1.725 -4.119,-1.725l-6.737,0l-2.475,0l0,15.4m10.106,-22.138c1.992,0 3.847,0.413 5.513,1.226c1.728,0.846 3.226,1.954 4.451,3.296c1.237,1.355 2.225,2.933 2.937,4.691c0.701,1.734 1.056,3.492 1.056,5.225c0,1.841 -0.338,3.661 -1.005,5.407c-0.67,1.752 -1.615,3.326 -2.809,4.676c-1.168,1.322 -2.611,2.392 -4.288,3.181c-1.651,0.779 -3.506,1.174 -5.511,1.174l-7.975,0l-2.475,0l0,14.988l-8.457,0l0,-43.864l18.563,0" style="fill:#5f479a;fill-rule:nonzero;"/><path d="M212.665,82.091c0.89,0.034 1.656,0.798 1.69,1.69c0.042,3.234 -0.205,6.478 0.022,9.703c0.102,1.465 0.651,3.017 1.988,3.817c1.91,1.145 4.697,0.919 6.045,-0.935c0.672,-0.924 0.881,-2.104 0.905,-3.222c0.04,-3.121 -0.039,-6.243 0.002,-9.363c0.063,-1.649 3.348,-2.468 3.443,0c0.085,6.495 1.559,13.754 -3.944,16.555c-3.405,1.732 -8.051,1.057 -10.321,-1.972c-1.14,-1.52 -1.576,-3.461 -1.585,-5.379l0.75,-0.004l-0.75,0c0,-3.067 -0.039,-6.134 0.001,-9.2c0.035,-0.924 0.765,-1.703 1.754,-1.69Z" style="fill:#5f479a;fill-rule:nonzero;"/><path d="M255.632,81.967c2.038,0.025 4.035,0.593 5.736,1.784c0,0 1.73,2.465 -0.414,3.074c-1.089,0.309 -2.097,-0.834 -3.375,-1.274c-2.215,-0.762 -5.246,-0.312 -5.012,2.038c0.153,1.546 2.51,1.959 4.439,2.404c0.975,0.234 0.239,-0.129 2.257,0.7c3.59,1.477 5.185,7.594 0.325,9.813c-3.379,1.542 -7.763,0.426 -10.475,-1.878c-1.228,-1.114 0.247,-4.179 2.359,-2.431c2.795,2.274 8.128,2.374 7.893,-0.719c-0.114,-1.504 -2.33,-1.95 -4.256,-2.39c-1,-0.236 -0.243,0.12 -2.315,-0.692c-3.008,-1.179 -5.587,-5.198 -2.176,-8.589c1.295,-1.287 3.182,-1.847 5.014,-1.84Z" style="fill:#5f479a;fill-rule:nonzero;"/><path d="M288.44,93.141l0,4.53c3.045,0 6.091,-0.038 9.136,0.001c1.59,0.059 2.293,3.185 0,3.27c-3.638,0.046 -7.277,0.049 -10.916,0c-0.886,-0.035 -1.654,-0.813 -1.665,-1.724l0.75,-0.009l-0.75,0c0,-5.102 -0.065,-10.204 0,-15.306c0.034,-0.882 0.781,-1.653 1.665,-1.689c3.598,-0.048 7.196,-0.045 10.793,0c1.6,0.06 2.288,3.243 -0.037,3.272l-8.976,0l0,4.382c2.635,0 5.272,-0.034 7.907,0.001c1.59,0.063 2.285,3.243 -0.038,3.272l-7.869,0Z" style="fill:#5f479a;fill-rule:nonzero;"/><path d="M324.62,94.248c0,2.463 0.559,5.339 -0.569,6.367c-0.949,0.865 -2.82,0.169 -2.875,-1.239c-0.066,-5.157 -0.066,-10.316 0,-15.473c0.034,-0.885 0.785,-1.654 1.665,-1.689c2.2,-0.029 4.4,-0.01 6.599,0c3.846,0.055 7.699,3.094 6.716,7.329c-0.435,1.873 -1.95,3.336 -3.871,4.01c0,0 3.536,4.613 3.536,4.613c0.438,0.505 0.438,0.22 0.488,1.097c0.085,1.481 -2.147,2.421 -3.237,0.993l-4.624,-6.008l-3.828,0Zm0,-8.737l0,5.49c3.492,0 8.265,0.731 8.222,-2.885c-0.019,-1.576 -1.753,-2.566 -3.536,-2.605c-1.562,-0.011 -3.124,0 -4.686,0Z" style="fill:#5f479a;fill-rule:nonzero;"/><path d="M400.529,90.24c2.112,0.14 1.622,4 1.622,6.981c-0.052,3.375 -6.39,4.879 -10.701,3.59c-3.791,-1.132 -6.412,-4.94 -6.478,-9.06l0.75,-0.123l-0.75,0c0,-6.672 8.001,-12.603 14.997,-8.208c1.388,0.871 1.968,3.069 0.138,3.559c-2.079,0.558 -4.479,-3.063 -8.27,-1.207c-4.828,2.364 -4.777,13.244 3.625,12.16c1.173,-0.151 2.316,-0.583 3.287,-1.262c0,0 0.032,-3.185 0.032,-3.185c-2.21,0 -4.722,0.497 -5.36,-0.982c-0.415,-0.963 0.355,-2.222 1.44,-2.265c1.889,-0.025 3.78,-0.074 5.668,0.002Z" style="fill:#5f479a;fill-rule:nonzero;"/><path d="M428.166,94.248c0,2.463 0.559,5.34 -0.57,6.367c-0.949,0.865 -2.82,0.169 -2.875,-1.239c-0.066,-5.157 -0.066,-10.316 0,-15.473c0.034,-0.885 0.785,-1.654 1.665,-1.689c2.2,-0.029 4.4,-0.01 6.6,0c3.863,0.055 7.69,3.132 6.716,7.329c-0.435,1.873 -1.951,3.335 -3.872,4.01c0,0 3.537,4.613 3.537,4.613c0.437,0.505 0.437,0.22 0.488,1.097c0.085,1.48 -2.147,2.421 -3.238,0.993l-4.623,-6.008l-3.828,0Zm0,-8.737l0,5.49c3.49,0 8.265,0.756 8.221,-2.885c-0.018,-1.577 -1.752,-2.566 -3.536,-2.605c-1.562,-0.011 -3.124,0 -4.685,0Z" style="fill:#5f479a;fill-rule:nonzero;"/><path d="M461.585,91.631c-0.085,-0.05 -0.142,-0.14 -0.139,-0.292c0.148,-5.052 4.187,-9.454 9.69,-9.42c3.335,0.061 6.56,1.893 8.165,4.809c2.631,4.781 0.519,11.723 -4.68,13.817c-5.768,2.323 -13.139,-2.114 -13.178,-8.913l0.142,-0.001Zm9.287,-6.416c-3.701,0.07 -6.703,4.011 -5.711,8.042c1.044,4.24 7.384,6.411 10.476,2.471c2.806,-3.574 0.937,-10.338 -4.517,-10.511c-0.083,-0.002 -0.165,-0.003 -0.248,-0.002Zm-8.679,6.413l-0.608,0.003c0.215,0.129 0.603,-0.002 0.608,-0.003c0,0 0,0 0,0Zm15.556,0l0,0l0,0l0,0Z" style="fill:#5f479a;fill-rule:nonzero;"/><path d="M503.296,92.981l-0.75,0c0,-3.066 -0.04,-6.133 0,-9.2c0.064,-1.712 3.358,-2.193 3.444,-0.001c0.043,3.235 -0.204,6.479 0.022,9.704c0.103,1.465 0.651,3.016 1.988,3.817c1.91,1.145 4.697,0.918 6.045,-0.935c0.672,-0.924 0.882,-2.104 0.905,-3.222c0.04,-3.121 -0.039,-6.242 0.002,-9.363c0.034,-0.915 0.838,-1.703 1.778,-1.69c0.878,0.035 1.631,0.802 1.665,1.689c0.085,6.496 1.559,13.755 -3.944,16.556c-3.404,1.732 -8.051,1.056 -10.321,-1.972c-1.138,-1.518 -1.575,-3.455 -1.584,-5.379l0.75,-0.004l0,0Z" style="fill:#5f479a;fill-rule:nonzero;"/><path d="M544.632,94.864c0,2.237 0.557,4.872 -0.664,5.831c-0.985,0.775 -2.728,0.023 -2.78,-1.319c-0.066,-5.157 -0.066,-10.316 0,-15.473c0.086,-2.214 4.178,-1.702 7.295,-1.689c4.131,0.052 8.8,3.587 6.625,8.735c-1.092,2.584 -4.203,3.903 -7.04,3.915l-3.436,0Zm0,-9.353l0,6.08l3.505,0c1.98,-0.016 4.075,-1.194 3.974,-3.281c-0.081,-1.693 -1.937,-2.759 -3.754,-2.798c-1.241,-0.009 -2.483,-0.001 -3.725,-0.001Z" style="fill:#5f479a;fill-rule:nonzero;"/></svg>