<?xml version="1.0" encoding="utf-8"?>
<!-- Generator: Adobe Illustrator 23.0.1, SVG Export Plug-In . SVG Version: 6.00 Build 0)  -->
<svg version="1.2" baseProfile="tiny" id="레이어_1"
	 xmlns="http://www.w3.org/2000/svg" xmlns:xlink="http://www.w3.org/1999/xlink" x="0px" y="0px" width="420px" height="300px"
	 viewBox="0 0 420 300" xml:space="preserve">
<g>
	<path fill="#5F4699" d="M317.72,78.46c-17.2-47.18-57.04-61.26-82.08-65.06C195.8,7.35,131.05,5.55,107.78,41.67
		c-11.4,17.69-8.51,36.39-3.46,48.79c5.05,12.39,8.4,24.22,7.34,29.06c-3.14,14.38-16.33,18.32-16.33,18.32l5.48,12.65
		c19.57-1.66,34.3-14.94,39.3-15.67c5.81-0.84,9.64,0.91,11.32,4.12c1.68,3.21,5.05,40.35,5.05,40.35l40.28-0.01
		c0-0.01,0-0.02,0-0.03c0-21.47,17.4-38.87,38.87-38.87s38.87,17.4,38.87,38.87c0,0.01,0,0.02,0,0.03l40.28,0.01
		C314.79,179.28,334.91,125.63,317.72,78.46z"/>
	<g>
		<g>
			<path fill="#5F4699" d="M44.21,259.35v-23.83l-7.58,16.75H30l-7.58-16.75v23.83H10v-45.23h13.57l9.75,21.28l9.81-21.28h13.51
				v45.23H44.21z"/>
			<path fill="#5F4699" d="M83.2,259.73c-3.44,0-6.56-0.66-9.36-1.97c-2.8-1.32-5.2-3.05-7.2-5.19c-2-2.14-3.55-4.6-4.65-7.36
				c-1.1-2.76-1.66-5.61-1.66-8.54c0-2.97,0.57-5.84,1.72-8.6c1.15-2.76,2.75-5.19,4.81-7.29c2.06-2.1,4.5-3.78,7.33-5.03
				c2.82-1.25,5.91-1.88,9.27-1.88c3.44,0,6.56,0.66,9.36,1.97c2.8,1.32,5.2,3.06,7.2,5.22c2,2.17,3.54,4.63,4.62,7.39
				c1.08,2.76,1.62,5.59,1.62,8.47c0,2.97-0.57,5.83-1.72,8.57c-1.15,2.74-2.74,5.16-4.78,7.26c-2.04,2.1-4.47,3.79-7.29,5.06
				C89.64,259.09,86.55,259.73,83.2,259.73z M72.94,236.79c0,1.53,0.21,3.01,0.64,4.43c0.42,1.42,1.06,2.69,1.91,3.79
				c0.85,1.1,1.92,2,3.22,2.68c1.29,0.68,2.83,1.02,4.62,1.02c1.78,0,3.33-0.35,4.65-1.05c1.32-0.7,2.39-1.61,3.22-2.74
				c0.83-1.12,1.44-2.41,1.85-3.85c0.4-1.44,0.61-2.91,0.61-4.4c0-1.53-0.21-3-0.64-4.43c-0.43-1.42-1.07-2.68-1.94-3.76
				c-0.87-1.08-1.95-1.95-3.25-2.61c-1.3-0.66-2.81-0.99-4.56-0.99c-1.78,0-3.32,0.34-4.62,1.02c-1.3,0.68-2.37,1.58-3.22,2.71
				c-0.85,1.13-1.48,2.4-1.88,3.82C73.14,233.85,72.94,235.31,72.94,236.79z"/>
			<path fill="#5F4699" d="M109.95,259.35v-45.23h17.39c3.74,0,7.03,0.6,9.87,1.78c2.84,1.19,5.22,2.8,7.13,4.84
				c1.91,2.04,3.35,4.43,4.33,7.17c0.98,2.74,1.47,5.66,1.47,8.76c0,3.44-0.54,6.55-1.62,9.33c-1.08,2.78-2.62,5.16-4.62,7.14
				c-2,1.97-4.4,3.5-7.2,4.59c-2.8,1.08-5.92,1.62-9.36,1.62H109.95z M137.54,236.67c0-1.74-0.23-3.33-0.7-4.78
				c-0.47-1.44-1.14-2.68-2.01-3.69c-0.87-1.02-1.94-1.82-3.22-2.39c-1.27-0.57-2.7-0.86-4.27-0.86h-4.97v23.57h4.97
				c1.61,0,3.06-0.3,4.33-0.89c1.27-0.59,2.35-1.42,3.22-2.48c0.87-1.06,1.53-2.31,1.97-3.76
				C137.31,239.94,137.54,238.37,137.54,236.67z"/>
			<path fill="#5F4699" d="M186.21,248.52v10.83h-32.23v-45.23h31.66v10.83h-19.24v6.37h16.44v10.07h-16.44v7.14H186.21z"/>
			<path fill="#5F4699" d="M190.41,259.35v-45.23h20.77c2.21,0,4.25,0.46,6.12,1.37c1.87,0.91,3.47,2.1,4.81,3.57
				c1.34,1.47,2.39,3.14,3.15,5.03c0.76,1.89,1.15,3.79,1.15,5.7c0,2.63-0.57,5.09-1.72,7.36c-1.15,2.27-2.74,4.13-4.78,5.57
				l9.56,16.63h-14.02l-7.96-13.89h-4.65v13.89H190.41z M202.83,234.63h7.84c0.76,0,1.48-0.42,2.13-1.27
				c0.66-0.85,0.99-2.04,0.99-3.57c0-1.57-0.38-2.77-1.15-3.6c-0.76-0.83-1.53-1.24-2.29-1.24h-7.52V234.63z"/>
			<path fill="#5F4699" d="M244.24,237.11v22.23h-12.42v-45.23h9.68l18.16,23v-23h12.42v45.23h-9.87L244.24,237.11z"/>
			<path fill="#5F4699" d="M310.49,216.41c1.85,0,3.56,0.38,5.11,1.14c1.6,0.78,2.99,1.81,4.12,3.05c1.15,1.26,2.06,2.72,2.72,4.35
				c0.65,1.61,0.98,3.24,0.98,4.84c0,1.71-0.31,3.39-0.93,5.01c-0.62,1.62-1.5,3.08-2.6,4.33c-1.08,1.23-2.42,2.22-3.97,2.95
				c-1.53,0.72-3.25,1.09-5.11,1.09h-7.39h-2.29v2.29v11.59h-7.84v-40.64H310.49 M301.13,236.92h2.29h6.56
				c0.98,0,2.43-0.31,3.81-1.78c1.08-1.15,1.61-2.91,1.61-5.36c0-2.58-0.63-4.39-1.92-5.54c-1.19-1.06-2.48-1.6-3.82-1.6h-6.24
				h-2.29v2.29v9.68V236.92 M310.49,214.11H291v45.23h12.42v-13.89h7.39c2.21,0,4.24-0.44,6.08-1.31c1.85-0.87,3.42-2.04,4.71-3.5
				c1.3-1.47,2.3-3.14,3.03-5.03c0.72-1.89,1.08-3.83,1.08-5.83c0-1.91-0.38-3.81-1.15-5.7c-0.76-1.89-1.82-3.57-3.15-5.03
				c-1.34-1.47-2.94-2.65-4.81-3.57C314.74,214.57,312.7,214.11,310.49,214.11L310.49,214.11z M303.42,234.63v-9.68h6.24
				c0.76,0,1.53,0.34,2.29,1.02c0.76,0.68,1.15,1.95,1.15,3.82c0,1.83-0.33,3.09-0.99,3.79c-0.66,0.7-1.37,1.05-2.13,1.05H303.42
				L303.42,234.63z"/>
			<path fill="#5F4699" d="M366.81,216.41v40.64h-7.84v-15.42v-2.29h-2.29h-15.16h-2.29v2.29v15.42h-7.84v-40.64h7.84v14.4v2.29
				h2.29h15.16h2.29v-2.29v-14.4H366.81 M369.1,214.11h-12.42v16.69h-15.16v-16.69h-12.42v45.23h12.42v-17.71h15.16v17.71h12.42
				V214.11L369.1,214.11z"/>
			<path fill="#5F4699" d="M394.77,216.41c1.85,0,3.56,0.38,5.11,1.14c1.6,0.78,2.99,1.81,4.12,3.05c1.15,1.26,2.06,2.72,2.72,4.35
				c0.65,1.61,0.98,3.24,0.98,4.84c0,1.71-0.31,3.39-0.93,5.01c-0.62,1.62-1.5,3.08-2.6,4.33c-1.08,1.23-2.42,2.22-3.97,2.95
				c-1.53,0.72-3.25,1.09-5.11,1.09h-7.39h-2.29v2.29v11.59h-7.84v-40.64H394.77 M385.41,236.92h2.29h6.56
				c0.98,0,2.43-0.31,3.81-1.78c1.08-1.15,1.61-2.91,1.61-5.36c0-2.58-0.63-4.39-1.92-5.54c-1.19-1.06-2.48-1.6-3.82-1.6h-6.24
				h-2.29v2.29v9.68V236.92 M394.77,214.11h-19.49v45.23h12.42v-13.89h7.39c2.21,0,4.24-0.44,6.08-1.31
				c1.85-0.87,3.42-2.04,4.71-3.5c1.3-1.47,2.3-3.14,3.03-5.03c0.72-1.89,1.08-3.83,1.08-5.83c0-1.91-0.38-3.81-1.15-5.7
				c-0.76-1.89-1.82-3.57-3.15-5.03c-1.34-1.47-2.94-2.65-4.81-3.57C399.02,214.57,396.98,214.11,394.77,214.11L394.77,214.11z
				 M387.7,234.63v-9.68h6.24c0.76,0,1.53,0.34,2.29,1.02c0.76,0.68,1.15,1.95,1.15,3.82c0,1.83-0.33,3.09-0.99,3.79
				c-0.66,0.7-1.37,1.05-2.13,1.05H387.7L387.7,234.63z"/>
		</g>
		<g>
			<path fill="#5F4699" d="M50.17,283.04v-8.48c0-0.5,0.41-0.91,0.89-0.91c0.5,0,0.91,0.41,0.91,0.91v8.37
				c0,3.44,1.85,5.38,4.88,5.38c2.94,0,4.81-1.78,4.81-5.27v-8.48c0-0.5,0.41-0.91,0.91-0.91c0.48,0,0.89,0.41,0.89,0.91v8.35
				c0,4.65-2.67,7.07-6.66,7.07C52.86,289.98,50.17,287.56,50.17,283.04z"/>
			<path fill="#5F4699" d="M85.41,287.81c-0.21-0.14-0.34-0.39-0.34-0.68c0-0.5,0.39-0.89,0.87-0.89c0.23,0,0.43,0.09,0.55,0.21
				c1.51,1.28,3.01,1.89,5.04,1.89c2.14,0,3.56-1.14,3.56-2.71v-0.05c0-1.48-0.8-2.33-4.15-3.03c-3.67-0.8-5.36-1.98-5.36-4.61
				v-0.05c0-2.51,2.21-4.36,5.25-4.36c2.1,0,3.63,0.52,5.09,1.57c0.18,0.14,0.39,0.39,0.39,0.73c0,0.48-0.39,0.87-0.87,0.87
				c-0.21,0-0.36-0.05-0.52-0.16c-1.35-0.98-2.65-1.39-4.13-1.39c-2.08,0-3.4,1.14-3.4,2.58v0.05c0,1.51,0.82,2.35,4.33,3.1
				c3.56,0.78,5.2,2.08,5.2,4.52v0.05c0,2.74-2.28,4.52-5.45,4.52C89.12,289.95,87.18,289.22,85.41,287.81z"/>
			<path fill="#5F4699" d="M118.82,288.81v-14.14c0-0.5,0.41-0.91,0.89-0.91h9.92c0.46,0,0.82,0.36,0.82,0.82s-0.36,0.82-0.82,0.82
				h-9.01v5.45h7.98c0.46,0,0.82,0.39,0.82,0.82c0,0.46-0.36,0.82-0.82,0.82h-7.98v5.59h9.12c0.46,0,0.82,0.36,0.82,0.82
				s-0.36,0.82-0.82,0.82h-10.03C119.23,289.73,118.82,289.32,118.82,288.81z"/>
			<path fill="#5F4699" d="M152.34,274.67c0-0.5,0.41-0.91,0.89-0.91h5.98c1.96,0,3.53,0.59,4.54,1.6c0.78,0.78,1.23,1.89,1.23,3.15
				v0.05c0,2.62-1.78,4.15-4.26,4.63l3.97,5.11c0.18,0.21,0.3,0.41,0.3,0.66c0,0.48-0.46,0.89-0.91,0.89
				c-0.36,0-0.64-0.21-0.84-0.48l-4.49-5.84h-4.58v5.41c0,0.5-0.41,0.91-0.91,0.91c-0.48,0-0.89-0.41-0.89-0.91V274.67z
				 M159.05,281.9c2.39,0,4.11-1.23,4.11-3.28v-0.05c0-1.96-1.51-3.15-4.08-3.15h-4.93v6.48H159.05z"/>
			<path fill="#5F4699" d="M211.45,281.79v-0.05c0-4.38,3.22-8.26,8.01-8.26c2.42,0,3.99,0.64,5.45,1.71
				c0.2,0.16,0.36,0.41,0.36,0.73c0,0.5-0.41,0.91-0.89,0.91c-0.21,0-0.39-0.09-0.57-0.23c-1.14-0.87-2.42-1.46-4.42-1.46
				c-3.53,0-6.07,2.99-6.07,6.55v0.05c0,3.81,2.44,6.64,6.32,6.64c1.82,0,3.51-0.71,4.61-1.6v-3.97h-4.29c-0.43,0-0.8-0.37-0.8-0.8
				c0-0.46,0.37-0.82,0.8-0.82h5.13c0.48,0,0.89,0.41,0.89,0.91v4.86c0,0.43-0.21,0.82-0.62,1.09c-1.46,1.07-3.42,1.94-5.79,1.94
				C214.55,290,211.45,286.35,211.45,281.79z"/>
			<path fill="#5F4699" d="M248.28,274.67c0-0.5,0.41-0.91,0.89-0.91h5.98c1.96,0,3.54,0.59,4.54,1.6c0.78,0.78,1.23,1.89,1.23,3.15
				v0.05c0,2.62-1.78,4.15-4.26,4.63l3.97,5.11c0.18,0.21,0.3,0.41,0.3,0.66c0,0.48-0.46,0.89-0.91,0.89
				c-0.37,0-0.64-0.21-0.84-0.48l-4.49-5.84h-4.58v5.41c0,0.5-0.41,0.91-0.91,0.91c-0.48,0-0.89-0.41-0.89-0.91V274.67z
				 M254.99,281.9c2.39,0,4.11-1.23,4.11-3.28v-0.05c0-1.96-1.51-3.15-4.08-3.15h-4.93v6.48H254.99z"/>
			<path fill="#5F4699" d="M282.31,281.79v-0.05c0-4.4,3.31-8.26,8.17-8.26c4.86,0,8.12,3.81,8.12,8.21v0.05
				c0,4.4-3.31,8.26-8.17,8.26S282.31,286.19,282.31,281.79z M296.72,281.79v-0.05c0-3.63-2.65-6.59-6.29-6.59
				c-3.65,0-6.25,2.92-6.25,6.55v0.05c0,3.63,2.65,6.59,6.3,6.59C294.12,288.33,296.72,285.42,296.72,281.79z"/>
			<path fill="#5F4699" d="M320.4,283.04v-8.48c0-0.5,0.41-0.91,0.89-0.91c0.5,0,0.91,0.41,0.91,0.91v8.37
				c0,3.44,1.85,5.38,4.88,5.38c2.94,0,4.81-1.78,4.81-5.27v-8.48c0-0.5,0.41-0.91,0.91-0.91c0.48,0,0.89,0.41,0.89,0.91v8.35
				c0,4.65-2.67,7.07-6.66,7.07C323.09,289.98,320.4,287.56,320.4,283.04z"/>
			<path fill="#5F4699" d="M356.2,274.67c0-0.5,0.41-0.91,0.89-0.91h5.09c3.6,0,5.98,1.92,5.98,5.06v0.05
				c0,3.44-2.87,5.22-6.27,5.22H358v4.84c0,0.5-0.41,0.91-0.91,0.91c-0.48,0-0.89-0.41-0.89-0.91V274.67z M361.95,282.45
				c2.65,0,4.38-1.41,4.38-3.51v-0.05c0-2.28-1.71-3.47-4.29-3.47H358v7.02H361.95z"/>
		</g>
	</g>
</g>
</svg>
