<?xml version="1.0" encoding="utf-8"?>
<!-- Generator: Adobe Illustrator 23.0.1, SVG Export Plug-In . SVG Version: 6.00 Build 0)  -->
<svg version="1.2" baseProfile="tiny" id="레이어_1"
	 xmlns="http://www.w3.org/2000/svg" xmlns:xlink="http://www.w3.org/1999/xlink" x="0px" y="0px" width="480px" height="120px"
	 viewBox="0 0 480 120" xml:space="preserve">
<g>
	<g>
		<g>
			<path fill="#5A438F" d="M120.37,25.56v80H25.56v-80H120.37 M124.81,21.11H21.11V110h103.7V21.11L124.81,21.11z"/>
			<path fill="#5F4699" d="M105.96,60.6c-5.27-14.45-17.47-18.76-25.14-19.93c-12.2-1.85-32.03-2.41-39.16,8.66
				c-3.49,5.42-2.61,11.15-1.06,14.94c1.55,3.8,2.57,7.42,2.25,8.9c-0.96,4.4-5,5.61-5,5.61l1.68,3.87
				c5.99-0.51,10.51-4.58,12.04-4.8c1.78-0.26,2.95,0.28,3.47,1.26c0.52,0.98,1.55,12.36,1.55,12.36l12.34,0c0,0,0-0.01,0-0.01
				c0-6.58,5.33-11.91,11.91-11.91c6.58,0,11.91,5.33,11.91,11.91c0,0,0,0.01,0,0.01l12.34,0C105.06,91.48,111.22,75.05,105.96,60.6
				z"/>
		</g>
		<polygon fill="#5A438F" points="21.11,21.11 98.89,21.11 98.89,10 10,10 10,98.89 21.11,98.89 		"/>
	</g>
	<g>
		<g>
			<path fill="#5F4699" d="M174.63,71.54V52.3l-6.12,13.53h-5.35l-6.12-13.53v19.24h-10.03V35.02h10.96l7.87,17.18l7.92-17.18h10.91
				v36.52H174.63z"/>
			<path fill="#5F4699" d="M206.11,71.85c-2.78,0-5.3-0.53-7.56-1.59c-2.26-1.06-4.2-2.46-5.81-4.19c-1.61-1.73-2.86-3.71-3.76-5.94
				c-0.89-2.23-1.34-4.53-1.34-6.89c0-2.4,0.46-4.71,1.39-6.94c0.93-2.23,2.22-4.19,3.88-5.89c1.66-1.7,3.63-3.05,5.92-4.06
				c2.28-1.01,4.78-1.52,7.48-1.52c2.78,0,5.3,0.53,7.56,1.59c2.26,1.06,4.2,2.47,5.81,4.22c1.61,1.75,2.85,3.74,3.73,5.97
				c0.87,2.23,1.31,4.51,1.31,6.84c0,2.4-0.46,4.71-1.39,6.92c-0.93,2.21-2.21,4.17-3.86,5.86c-1.65,1.7-3.61,3.06-5.89,4.09
				C211.32,71.34,208.82,71.85,206.11,71.85z M197.83,53.33c0,1.23,0.17,2.43,0.51,3.58c0.34,1.15,0.86,2.17,1.54,3.06
				c0.69,0.89,1.55,1.61,2.6,2.16c1.05,0.55,2.29,0.82,3.73,0.82s2.69-0.28,3.76-0.85c1.06-0.57,1.93-1.3,2.6-2.21
				c0.67-0.91,1.17-1.95,1.49-3.11c0.33-1.17,0.49-2.35,0.49-3.55c0-1.23-0.17-2.43-0.51-3.58c-0.34-1.15-0.87-2.16-1.57-3.04
				c-0.7-0.87-1.58-1.58-2.62-2.11c-1.05-0.53-2.27-0.8-3.68-0.8c-1.44,0-2.68,0.28-3.73,0.82c-1.05,0.55-1.91,1.28-2.6,2.19
				c-0.69,0.91-1.19,1.94-1.52,3.09C197.99,50.96,197.83,52.13,197.83,53.33z"/>
			<path fill="#5F4699" d="M227.72,71.54V35.02h14.04c3.02,0,5.68,0.48,7.97,1.44c2.3,0.96,4.22,2.26,5.76,3.91
				c1.54,1.65,2.71,3.58,3.5,5.79c0.79,2.21,1.18,4.57,1.18,7.07c0,2.78-0.44,5.29-1.31,7.54c-0.87,2.25-2.12,4.17-3.73,5.76
				c-1.61,1.59-3.55,2.83-5.81,3.7c-2.26,0.87-4.78,1.31-7.56,1.31H227.72z M249.99,53.23c0-1.41-0.19-2.69-0.57-3.86
				c-0.38-1.17-0.92-2.16-1.62-2.98c-0.7-0.82-1.57-1.47-2.6-1.93c-1.03-0.46-2.18-0.69-3.45-0.69h-4.01V62.8h4.01
				c1.3,0,2.47-0.24,3.5-0.72c1.03-0.48,1.89-1.15,2.6-2.01c0.7-0.86,1.23-1.87,1.59-3.03C249.81,55.87,249.99,54.6,249.99,53.23z"
				/>
			<path fill="#5F4699" d="M289.29,62.8v8.74h-26.03V35.02h25.57v8.74h-15.54v5.14h13.27v8.13h-13.27v5.76H289.29z"/>
			<path fill="#5F4699" d="M292.69,71.54V35.02h16.77c1.78,0,3.43,0.37,4.94,1.11c1.51,0.74,2.8,1.7,3.88,2.88
				c1.08,1.18,1.93,2.54,2.55,4.06c0.62,1.53,0.93,3.06,0.93,4.6c0,2.13-0.46,4.11-1.39,5.94c-0.93,1.84-2.21,3.34-3.86,4.5
				l7.72,13.43H312.9l-6.43-11.21h-3.76v11.21H292.69z M302.72,51.58h6.33c0.62,0,1.19-0.34,1.72-1.03c0.53-0.69,0.8-1.65,0.8-2.88
				c0-1.27-0.31-2.24-0.93-2.91c-0.62-0.67-1.23-1-1.85-1h-6.07V51.58z"/>
			<path fill="#5F4699" d="M336.15,53.59v17.95h-10.03V35.02h7.82l14.66,18.57V35.02h10.03v36.52h-7.97L336.15,53.59z"/>
			<path fill="#5F4699" d="M389.65,36.87c1.49,0,2.88,0.31,4.12,0.92c1.29,0.63,2.41,1.46,3.33,2.47c0.93,1.01,1.67,2.19,2.2,3.51
				c0.52,1.3,0.79,2.61,0.79,3.91c0,1.38-0.25,2.74-0.75,4.05c-0.5,1.31-1.21,2.49-2.1,3.5c-0.87,0.99-1.95,1.79-3.21,2.38
				c-1.24,0.58-2.62,0.88-4.12,0.88h-5.97h-1.85v1.85v9.36h-6.33V36.87H389.65 M382.09,53.44h1.85h5.3c0.79,0,1.96-0.25,3.07-1.43
				c0.87-0.93,1.3-2.35,1.3-4.33c0-2.08-0.51-3.54-1.55-4.47c-0.96-0.86-2-1.29-3.08-1.29h-5.04h-1.85v1.85v7.82V53.44
				 M389.65,35.02h-15.74v36.52h10.03V60.33h5.97c1.78,0,3.42-0.35,4.91-1.05c1.49-0.7,2.76-1.65,3.81-2.83
				c1.05-1.18,1.86-2.54,2.44-4.06c0.58-1.53,0.87-3.09,0.87-4.71c0-1.54-0.31-3.08-0.93-4.6c-0.62-1.53-1.47-2.88-2.55-4.06
				c-1.08-1.18-2.38-2.14-3.88-2.88C393.08,35.39,391.43,35.02,389.65,35.02L389.65,35.02z M383.94,51.58v-7.82h5.04
				c0.62,0,1.23,0.27,1.85,0.82c0.62,0.55,0.93,1.58,0.93,3.09c0,1.47-0.27,2.49-0.8,3.06c-0.53,0.57-1.11,0.85-1.72,0.85H383.94
				L383.94,51.58z"/>
			<path fill="#5F4699" d="M435.12,36.87v32.82h-6.33V57.24v-1.85h-1.85H414.7h-1.85v1.85v12.45h-6.33V36.87h6.33V48.5v1.85h1.85
				h12.24h1.85V48.5V36.87H435.12 M436.98,35.02h-10.03V48.5H414.7V35.02h-10.03v36.52h10.03v-14.3h12.24v14.3h10.03V35.02
				L436.98,35.02z"/>
			<path fill="#5F4699" d="M457.71,36.87c1.49,0,2.88,0.31,4.12,0.92c1.29,0.63,2.41,1.46,3.33,2.47c0.93,1.01,1.67,2.19,2.2,3.51
				c0.52,1.3,0.79,2.61,0.79,3.91c0,1.38-0.25,2.74-0.75,4.05c-0.5,1.31-1.21,2.49-2.1,3.5c-0.87,0.99-1.95,1.79-3.21,2.38
				c-1.24,0.58-2.62,0.88-4.12,0.88H452h-1.85v1.85v9.36h-6.33V36.87H457.71 M450.14,53.44H452h5.3c0.79,0,1.96-0.25,3.07-1.43
				c0.87-0.93,1.3-2.35,1.3-4.33c0-2.08-0.51-3.54-1.55-4.47c-0.96-0.86-2-1.29-3.08-1.29H452h-1.85v1.85v7.82V53.44 M457.71,35.02
				h-15.74v36.52H452V60.33h5.97c1.78,0,3.42-0.35,4.91-1.05c1.49-0.7,2.76-1.65,3.81-2.83c1.05-1.18,1.86-2.54,2.44-4.06
				c0.58-1.53,0.87-3.09,0.87-4.71c0-1.54-0.31-3.08-0.93-4.6c-0.62-1.53-1.47-2.88-2.55-4.06c-1.08-1.18-2.38-2.14-3.88-2.88
				C461.13,35.39,459.49,35.02,457.71,35.02L457.71,35.02z M452,51.58v-7.82h5.04c0.62,0,1.23,0.27,1.85,0.82
				c0.62,0.55,0.93,1.58,0.93,3.09c0,1.47-0.27,2.49-0.8,3.06c-0.53,0.57-1.11,0.85-1.72,0.85H452L452,51.58z"/>
		</g>
		<g>
			<path fill="#5F4699" d="M179.45,90.68v-6.85c0-0.4,0.33-0.74,0.72-0.74c0.41,0,0.74,0.33,0.74,0.74v6.76
				c0,2.78,1.49,4.35,3.94,4.35c2.38,0,3.89-1.44,3.89-4.25v-6.85c0-0.4,0.33-0.74,0.74-0.74c0.39,0,0.72,0.33,0.72,0.74v6.74
				c0,3.76-2.15,5.71-5.38,5.71C181.62,96.28,179.45,94.33,179.45,90.68z"/>
			<path fill="#5F4699" d="M207.9,94.53c-0.17-0.11-0.28-0.31-0.28-0.55c0-0.4,0.31-0.72,0.7-0.72c0.18,0,0.35,0.07,0.44,0.17
				c1.22,1.03,2.43,1.53,4.07,1.53c1.73,0,2.87-0.92,2.87-2.19v-0.04c0-1.2-0.64-1.88-3.35-2.45c-2.97-0.64-4.33-1.6-4.33-3.72
				v-0.04c0-2.03,1.79-3.52,4.24-3.52c1.69,0,2.93,0.42,4.11,1.27c0.15,0.11,0.31,0.31,0.31,0.59c0,0.39-0.31,0.7-0.7,0.7
				c-0.17,0-0.29-0.04-0.42-0.13c-1.09-0.79-2.14-1.12-3.33-1.12c-1.68,0-2.74,0.92-2.74,2.08v0.04c0,1.22,0.66,1.9,3.5,2.5
				c2.87,0.63,4.2,1.68,4.2,3.65v0.04c0,2.21-1.84,3.65-4.4,3.65C210.9,96.26,209.33,95.67,207.9,94.53z"/>
			<path fill="#5F4699" d="M234.88,95.34V83.92c0-0.4,0.33-0.74,0.72-0.74h8.01c0.37,0,0.66,0.29,0.66,0.66s-0.29,0.66-0.66,0.66
				h-7.27v4.4h6.45c0.37,0,0.66,0.31,0.66,0.66c0,0.37-0.29,0.66-0.66,0.66h-6.45v4.51h7.37c0.37,0,0.66,0.29,0.66,0.66
				c0,0.37-0.29,0.66-0.66,0.66h-8.1C235.21,96.08,234.88,95.74,234.88,95.34z"/>
			<path fill="#5F4699" d="M261.95,83.92c0-0.4,0.33-0.74,0.72-0.74h4.82c1.58,0,2.85,0.48,3.66,1.29c0.63,0.63,0.99,1.53,0.99,2.54
				v0.04c0,2.12-1.44,3.35-3.44,3.74l3.2,4.13c0.15,0.17,0.24,0.33,0.24,0.53c0,0.39-0.37,0.72-0.74,0.72
				c-0.29,0-0.52-0.17-0.68-0.39l-3.63-4.71h-3.7v4.36c0,0.41-0.33,0.74-0.74,0.74c-0.39,0-0.72-0.33-0.72-0.74V83.92z
				 M267.36,89.76c1.93,0,3.31-0.99,3.31-2.65v-0.04c0-1.58-1.22-2.54-3.3-2.54h-3.98v5.23H267.36z"/>
			<path fill="#5F4699" d="M309.68,89.67v-0.04c0-3.54,2.6-6.67,6.46-6.67c1.95,0,3.22,0.52,4.4,1.38c0.17,0.13,0.29,0.33,0.29,0.59
				c0,0.41-0.33,0.74-0.72,0.74c-0.17,0-0.31-0.07-0.46-0.18c-0.92-0.7-1.95-1.18-3.57-1.18c-2.85,0-4.9,2.41-4.9,5.29v0.04
				c0,3.08,1.97,5.36,5.1,5.36c1.47,0,2.84-0.57,3.72-1.29v-3.2h-3.46c-0.35,0-0.64-0.29-0.64-0.64c0-0.37,0.29-0.66,0.64-0.66h4.14
				c0.39,0,0.72,0.33,0.72,0.74v3.92c0,0.35-0.17,0.66-0.5,0.88c-1.18,0.87-2.76,1.57-4.68,1.57
				C312.18,96.3,309.68,93.35,309.68,89.67z"/>
			<path fill="#5F4699" d="M339.42,83.92c0-0.4,0.33-0.74,0.72-0.74h4.82c1.58,0,2.85,0.48,3.67,1.29c0.63,0.63,0.99,1.53,0.99,2.54
				v0.04c0,2.12-1.44,3.35-3.44,3.74l3.2,4.13c0.15,0.17,0.24,0.33,0.24,0.53c0,0.39-0.37,0.72-0.74,0.72
				c-0.29,0-0.52-0.17-0.68-0.39l-3.63-4.71h-3.7v4.36c0,0.41-0.33,0.74-0.74,0.74c-0.39,0-0.72-0.33-0.72-0.74V83.92z
				 M344.83,89.76c1.93,0,3.31-0.99,3.31-2.65v-0.04c0-1.58-1.22-2.54-3.3-2.54h-3.98v5.23H344.83z"/>
			<path fill="#5F4699" d="M366.89,89.67v-0.04c0-3.55,2.67-6.67,6.59-6.67c3.92,0,6.56,3.08,6.56,6.63v0.04
				c0,3.55-2.67,6.67-6.59,6.67C369.53,96.3,366.89,93.22,366.89,89.67z M378.53,89.67v-0.04c0-2.93-2.14-5.32-5.08-5.32
				c-2.95,0-5.05,2.36-5.05,5.29v0.04c0,2.93,2.14,5.32,5.08,5.32C376.43,94.95,378.53,92.59,378.53,89.67z"/>
			<path fill="#5F4699" d="M397.65,90.68v-6.85c0-0.4,0.33-0.74,0.72-0.74c0.4,0,0.74,0.33,0.74,0.74v6.76
				c0,2.78,1.49,4.35,3.94,4.35c2.38,0,3.89-1.44,3.89-4.25v-6.85c0-0.4,0.33-0.74,0.74-0.74c0.39,0,0.72,0.33,0.72,0.74v6.74
				c0,3.76-2.15,5.71-5.38,5.71C399.82,96.28,397.65,94.33,397.65,90.68z"/>
			<path fill="#5F4699" d="M426.56,83.92c0-0.4,0.33-0.74,0.72-0.74h4.11c2.91,0,4.83,1.55,4.83,4.09v0.04
				c0,2.78-2.32,4.22-5.06,4.22h-3.13v3.9c0,0.41-0.33,0.74-0.74,0.74c-0.39,0-0.72-0.33-0.72-0.74V83.92z M431.2,90.2
				c2.14,0,3.54-1.14,3.54-2.84v-0.04c0-1.84-1.38-2.8-3.46-2.8h-3.26v5.67H431.2z"/>
		</g>
	</g>
</g>
</svg>
