<?xml version="1.0" encoding="UTF-8" standalone="no"?><!DOCTYPE svg PUBLIC "-//W3C//DTD SVG 1.1//EN" "http://www.w3.org/Graphics/SVG/1.1/DTD/svg11.dtd"><svg width="100%" height="100%" viewBox="0 0 600 131" version="1.1" xmlns="http://www.w3.org/2000/svg" xmlns:xlink="http://www.w3.org/1999/xlink" xml:space="preserve" xmlns:serif="http://www.serif.com/" style="fill-rule:evenodd;clip-rule:evenodd;stroke-linejoin:round;stroke-miterlimit:1.41421;"><path d="M149.75,14.492l-135.258,0l0,115.935l135.258,0l0,-115.935Zm-5.797,110.138l-123.664,0l0,-104.341l123.664,0l0,104.341Z" style="fill:#fff;fill-rule:nonzero;"/><path d="M125.155,65.995c-6.87,-18.847 -22.789,-24.474 -32.793,-25.992c-15.916,-2.416 -41.781,-3.137 -51.078,11.294c-4.552,7.066 -3.4,14.539 -1.383,19.489c2.016,4.95 3.355,9.677 2.933,11.611c-1.252,5.745 -6.524,7.319 -6.524,7.319l2.189,5.052c7.819,-0.663 13.703,-5.97 15.702,-6.26c2.322,-0.336 3.85,0.363 4.522,1.647c0.672,1.283 2.016,16.119 2.016,16.119l16.094,-0.003l0,-0.011c0,-8.576 6.952,-15.529 15.529,-15.529c8.576,0 15.529,6.953 15.529,15.529c0,0.004 0,0.007 0,0.011l16.093,0.003c0,0 8.041,-21.433 1.171,-40.279" style="fill:#fff;fill-rule:nonzero;"/><path d="M14.492,14.492l101.443,0l0,-14.492l-115.935,0l0,115.935l14.492,0l0,-101.443Z" style="fill:#fff;fill-rule:nonzero;"/><path d="M214.762,80.269l0,-25.092l-7.984,17.645l-6.978,0l-7.984,-17.645l0,25.092l-13.083,0l0,-47.635l14.291,0l10.265,22.408l10.333,-22.408l14.223,0l0,47.635l-13.083,0Z" style="fill:#fff;fill-rule:nonzero;"/><path d="M245.02,56.518c0,1.61 0.223,3.165 0.671,4.663c0.446,1.5 1.117,2.83 2.012,3.992c0.895,1.164 2.024,2.104 3.389,2.818c1.364,0.716 2.985,1.074 4.864,1.074c1.878,0 3.511,-0.369 4.897,-1.107c1.386,-0.738 2.516,-1.7 3.389,-2.886c0.872,-1.184 1.519,-2.538 1.945,-4.058c0.425,-1.52 0.638,-3.063 0.638,-4.629c0,-1.611 -0.225,-3.164 -0.671,-4.664c-0.448,-1.497 -1.13,-2.818 -2.046,-3.958c-0.918,-1.141 -2.059,-2.057 -3.422,-2.751c-1.365,-0.693 -2.964,-1.04 -4.798,-1.04c-1.878,0 -3.5,0.359 -4.863,1.074c-1.366,0.716 -2.494,1.667 -3.389,2.851c-0.895,1.186 -1.554,2.528 -1.979,4.026c-0.426,1.499 -0.637,3.03 -0.637,4.595m10.801,24.154c-3.623,0 -6.91,-0.694 -9.862,-2.081c-2.952,-1.385 -5.479,-3.208 -7.582,-5.467c-2.103,-2.259 -3.734,-4.841 -4.897,-7.75c-1.164,-2.907 -1.745,-5.904 -1.745,-8.989c0,-3.131 0.604,-6.15 1.812,-9.058c1.207,-2.907 2.895,-5.468 5.065,-7.682c2.17,-2.214 4.741,-3.981 7.716,-5.301c2.974,-1.318 6.228,-1.979 9.762,-1.979c3.623,0 6.911,0.694 9.863,2.08c2.952,1.387 5.478,3.22 7.581,5.501c2.102,2.282 3.723,4.876 4.864,7.784c1.141,2.907 1.711,5.881 1.711,8.923c0,3.131 -0.604,6.138 -1.811,9.023c-1.208,2.886 -2.886,5.435 -5.032,7.649c-2.147,2.214 -4.708,3.992 -7.682,5.334c-2.976,1.342 -6.23,2.013 -9.763,2.013" style="fill:#fff;fill-rule:nonzero;"/><path d="M313.051,56.384c0,-1.833 -0.247,-3.511 -0.737,-5.032c-0.494,-1.519 -1.198,-2.817 -2.114,-3.891c-0.918,-1.074 -2.047,-1.912 -3.388,-2.516c-1.342,-0.604 -2.841,-0.906 -4.496,-0.906l-5.233,0l0,24.824l5.233,0c1.7,0 3.221,-0.312 4.563,-0.939c1.342,-0.626 2.471,-1.498 3.387,-2.616c0.917,-1.118 1.611,-2.438 2.08,-3.959c0.471,-1.52 0.705,-3.175 0.705,-4.965m-29.051,23.885l0,-47.635l18.316,0c3.936,0 7.403,0.627 10.4,1.878c2.996,1.253 5.501,2.952 7.514,5.099c2.013,2.147 3.533,4.663 4.563,7.548c1.028,2.885 1.543,5.961 1.543,9.225c0,3.623 -0.571,6.9 -1.711,9.829c-1.141,2.93 -2.763,5.435 -4.864,7.514c-2.104,2.08 -4.63,3.69 -7.582,4.831c-2.952,1.141 -6.24,1.711 -9.863,1.711l-18.316,0Z" style="fill:#fff;fill-rule:nonzero;"/><path d="M364.309,68.863l0,11.406l-33.948,0l0,-47.635l33.344,0l0,11.405l-20.262,0l0,6.71l17.31,0l0,10.6l-17.31,0l0,7.514l20.866,0Z" style="fill:#fff;fill-rule:nonzero;"/><path d="M381.819,54.237l8.252,0c0.806,0 1.554,-0.446 2.248,-1.341c0.693,-0.895 1.04,-2.148 1.04,-3.758c0,-1.654 -0.403,-2.918 -1.207,-3.79c-0.806,-0.873 -1.611,-1.309 -2.416,-1.309l-7.917,0l0,10.198Zm-13.083,26.032l0,-47.636l21.872,0c2.326,0 4.472,0.482 6.441,1.443c1.968,0.962 3.657,2.214 5.066,3.758c1.408,1.542 2.516,3.31 3.321,5.299c0.805,1.991 1.207,3.992 1.207,6.005c0,2.775 -0.603,5.357 -1.811,7.749c-1.208,2.394 -2.885,4.351 -5.032,5.871l10.064,17.511l-14.761,0l-8.386,-14.626l-4.898,0l0,14.626l-13.083,0Z" style="fill:#fff;fill-rule:nonzero;"/><path d="M425.428,56.854l0,23.415l-13.083,0l0,-47.636l10.198,0l19.121,24.221l0,-24.221l13.083,0l0,47.636l-10.399,0l-18.92,-23.415Z" style="fill:#fff;fill-rule:nonzero;"/><path d="M487.756,54.237l0,-10.198l6.575,0c0.805,0 1.61,0.359 2.415,1.074c0.805,0.716 1.208,2.058 1.208,4.025c0,1.924 -0.347,3.254 -1.04,3.992c-0.694,0.738 -1.442,1.107 -2.247,1.107l-6.911,0Zm7.447,-21.604l-20.53,0l0,47.636l13.083,0l0,-14.626l7.783,0c2.325,0 4.462,-0.458 6.407,-1.375c1.946,-0.917 3.6,-2.147 4.964,-3.69c1.365,-1.544 2.427,-3.31 3.188,-5.301c0.76,-1.99 1.14,-4.036 1.14,-6.139c0,-2.013 -0.402,-4.014 -1.207,-6.005c-0.806,-1.989 -1.913,-3.757 -3.322,-5.299c-1.408,-1.544 -3.098,-2.796 -5.065,-3.758c-1.969,-0.961 -4.116,-1.443 -6.441,-1.443m-9.862,24.02l9.326,0c1.027,0 2.555,-0.324 4.008,-1.87c1.141,-1.215 1.694,-3.061 1.694,-5.645c0,-2.715 -0.66,-4.623 -2.019,-5.831c-1.257,-1.117 -2.61,-1.683 -4.019,-1.683l-6.575,0l-2.415,0l0,15.029m9.862,-21.604c1.943,0 3.754,0.403 5.38,1.196c1.687,0.826 3.148,1.908 4.343,3.217c1.208,1.322 2.172,2.862 2.866,4.577c0.684,1.692 1.031,3.408 1.031,5.099c0,1.797 -0.33,3.573 -0.981,5.277c-0.654,1.71 -1.576,3.245 -2.741,4.563c-1.141,1.29 -2.548,2.334 -4.185,3.104c-1.612,0.76 -3.421,1.145 -5.377,1.145l-7.783,0l-2.415,0l0,14.627l-8.253,0l0,-42.805l18.115,0" style="fill:#fff;fill-rule:nonzero;"/><path d="M556.927,32.634l-13.083,0l0,17.578l-15.968,0l0,-17.578l-13.083,0l0,47.635l13.083,0l0,-18.652l15.968,0l0,18.652l13.083,0l0,-47.635Zm-2.415,2.415l0,42.805l-8.253,0l0,-16.237l0,-2.415l-2.415,0l-15.968,0l-2.415,0l0,18.652l-8.253,0l0,-42.805l8.253,0l0,17.578l20.798,0l0,-2.415l0,-15.163l8.253,0Z" style="fill:#fff;fill-rule:nonzero;"/><path d="M576.518,54.237l0,-10.198l6.575,0c0.805,0 1.61,0.359 2.415,1.074c0.805,0.716 1.208,2.058 1.208,4.025c0,1.924 -0.347,3.254 -1.04,3.992c-0.694,0.738 -1.442,1.107 -2.247,1.107l-6.911,0Zm7.447,-21.604l-20.53,0l0,47.636l13.083,0l0,-14.626l7.782,0c2.326,0 4.463,-0.458 6.408,-1.375c1.946,-0.917 3.6,-2.147 4.965,-3.69c1.364,-1.544 2.426,-3.31 3.186,-5.301c0.761,-1.99 1.141,-4.036 1.141,-6.139c0,-2.013 -0.402,-4.014 -1.207,-6.005c-0.806,-1.989 -1.913,-3.757 -3.322,-5.299c-1.408,-1.544 -3.097,-2.796 -5.065,-3.758c-1.969,-0.961 -4.116,-1.443 -6.441,-1.443m-9.862,24.02l9.326,0c1.027,0 2.555,-0.324 4.008,-1.87c1.14,-1.215 1.694,-3.061 1.694,-5.645c0,-2.715 -0.66,-4.623 -2.019,-5.831c-1.257,-1.117 -2.61,-1.683 -4.019,-1.683l-6.575,0l-2.415,0l0,15.029m9.862,-21.604c1.943,0 3.754,0.403 5.38,1.196c1.687,0.826 3.148,1.908 4.343,3.217c1.207,1.322 2.172,2.862 2.866,4.577c0.684,1.692 1.031,3.408 1.031,5.099c0,1.797 -0.33,3.573 -0.981,5.277c-0.654,1.71 -1.576,3.245 -2.74,4.563c-1.141,1.29 -2.549,2.334 -4.186,3.104c-1.612,0.76 -3.421,1.145 -5.378,1.145l-7.782,0l-2.415,0l0,14.627l-8.253,0l0,-42.805l18.115,0" style="fill:#fff;fill-rule:nonzero;"/><path d="M221.995,94.868c0.736,0.014 1.392,0.641 1.407,1.406c0.019,2.958 -0.006,5.916 0,8.874c0.011,1.831 0.54,3.795 2.409,4.696c0.799,0.385 1.693,0.5 2.569,0.462c1.374,-0.06 2.785,-0.631 3.551,-1.895c0.568,-0.938 0.744,-2.064 0.751,-3.142c0.006,-2.999 -0.019,-5.997 0,-8.995c0.018,-0.901 1.029,-1.663 1.922,-1.311c0.522,0.205 0.892,0.74 0.903,1.311c0.019,2.956 0.007,5.913 0,8.869c-0.019,2.91 -1.112,5.952 -4.152,7.23c-3.422,1.44 -7.847,0.515 -9.71,-2.694c-0.771,-1.329 -1.065,-2.898 -1.069,-4.45l0.464,-0.001l-0.464,0c0,-2.985 -0.019,-5.97 0,-8.954c0.015,-0.722 0.621,-1.381 1.365,-1.406c0.018,0 0.036,0 0.054,0Z" style="fill:#fff;fill-rule:nonzero;"/><path d="M263.894,94.747c1.959,0.012 3.896,0.56 5.499,1.692c0.109,0.077 0.609,0.516 0.668,1.048c0.111,0.991 -1.073,2.034 -2.168,1.288c-1.314,-0.917 -2.862,-1.495 -4.468,-1.382c-1.365,0.096 -2.919,0.737 -2.734,2.599c0.166,1.662 2.758,2.163 4.538,2.58c1.936,0.458 3.973,1.141 4.953,2.892c1.056,1.889 0.584,4.451 -1.049,5.929c-1.269,1.148 -3.096,1.6 -4.798,1.575c-2.328,-0.034 -4.606,-0.878 -6.462,-2.347c-0.09,-0.063 -0.106,-0.08 -0.152,-0.125c-0.1,-0.097 -0.183,-0.21 -0.247,-0.334c-0.42,-0.821 0.203,-2.01 1.191,-2.035c0.339,-0.009 0.684,0.107 0.929,0.341c0,0 0.452,0.377 0.838,0.638c1.328,0.898 2.963,1.339 4.582,1.215c1.454,-0.112 2.949,-0.961 2.849,-2.632c-0.044,-0.735 -0.578,-1.356 -1.279,-1.701c-1.805,-0.891 -3.927,-0.912 -5.873,-1.825c-1.114,-0.522 -2.139,-1.372 -2.572,-2.549c-0.717,-1.95 -0.111,-4.279 1.625,-5.6c1.162,-0.884 2.656,-1.269 4.13,-1.267Zm-5.746,15.5l0,0l0,0l0,0Z" style="fill:#fff;fill-rule:nonzero;"/><path d="M293.335,111.305l-0.464,0c0,-4.971 -0.031,-9.941 0,-14.911c0.002,-0.102 0.006,-0.122 0.014,-0.18c0.092,-0.655 0.679,-1.212 1.369,-1.226c3.494,-0.023 6.989,-0.022 10.483,0c0.812,0.015 1.498,0.89 1.257,1.707c-0.159,0.538 -0.683,0.939 -1.257,0.95c0,0 -9.04,0 -9.04,0l0,4.813c2.653,0 5.307,-0.017 7.96,0c0.109,0.002 0.138,0.007 0.205,0.019c0.762,0.132 1.311,1.038 1.014,1.797c-0.188,0.481 -0.675,0.824 -1.202,0.841l-0.033,0l-7.944,0l0,4.957c3.053,0 6.107,-0.017 9.16,0c0.853,0.016 1.555,0.989 1.214,1.831c-0.194,0.48 -0.685,0.816 -1.214,0.826c-3.534,0.02 -7.069,0.023 -10.603,-0.001c-0.728,-0.014 -1.368,-0.652 -1.383,-1.405l0.464,-0.018l0,0Z" style="fill:#fff;fill-rule:nonzero;"/><path d="M331.003,106.195c0,1.75 0.011,3.499 0,5.247c-0.017,0.902 -1.028,1.664 -1.922,1.312c-0.522,-0.206 -0.892,-0.742 -0.903,-1.312c-0.032,-5.016 -0.032,-10.032 0,-15.048c0.014,-0.728 0.627,-1.391 1.382,-1.406c2.121,-0.014 4.242,-0.005 6.362,0c1.978,0.014 4.027,0.546 5.342,2.129c1.736,2.09 1.503,5.617 -0.684,7.383c-0.674,0.544 -1.477,0.916 -2.31,1.155c0,0 3.724,4.801 3.724,4.801c0.341,0.389 0.524,0.931 0.339,1.437c-0.357,0.975 -1.826,1.293 -2.602,0.27l-4.592,-5.968l-4.136,0Zm0,-8.526l0,5.894c1.585,0 3.171,0.009 4.756,0c1.097,-0.012 2.219,-0.268 3.002,-1.024c1.139,-1.1 1.091,-3.245 -0.287,-4.185c-0.774,-0.527 -1.762,-0.68 -2.716,-0.685c-1.585,-0.003 -3.17,0 -4.755,0Z" style="fill:#fff;fill-rule:nonzero;"/><path d="M405.297,102.818c0.715,0.024 1.349,0.654 1.364,1.406c0.012,1.712 0,3.424 0,5.137c-0.004,0.599 -0.326,1.17 -0.829,1.519c0,0 -0.678,0.493 -1.356,0.858c-3.264,1.758 -7.527,1.765 -10.496,-0.397c-2.291,-1.669 -3.538,-4.556 -3.547,-7.433l0.464,-0.001l-0.464,0c0,-3.858 2.411,-7.602 6.129,-8.787c2.864,-0.913 6.139,-0.383 8.556,1.309c0.186,0.131 0.263,0.186 0.348,0.267c0.51,0.483 0.583,1.356 0.15,1.914c-0.448,0.576 -1.311,0.7 -1.957,0.231c-1.506,-1.118 -3.427,-1.71 -5.385,-1.38c-2.845,0.48 -4.948,3.344 -4.944,6.397c0.002,2.175 0.904,4.419 2.772,5.6c2.304,1.456 5.58,1.14 7.798,-0.511l0.009,-3.496c-1.357,0 -2.713,0.009 -4.069,0c-0.615,-0.012 -1.186,-0.507 -1.275,-1.122c-0.106,-0.73 0.494,-1.496 1.275,-1.511c1.819,-0.012 3.638,-0.036 5.457,0Z" style="fill:#fff;fill-rule:nonzero;"/><path d="M432.048,106.195c0,1.75 0.011,3.499 0,5.247c-0.002,0.103 -0.006,0.123 -0.014,0.181c-0.117,0.83 -1.086,1.456 -1.909,1.131c-0.522,-0.206 -0.892,-0.742 -0.903,-1.312c-0.032,-5.016 -0.032,-10.032 0,-15.048c0.015,-0.728 0.627,-1.391 1.383,-1.406c2.12,-0.014 4.241,-0.005 6.362,0c1.971,0.014 4.019,0.538 5.342,2.129c1.746,2.101 1.503,5.576 -0.639,7.346c-0.683,0.564 -1.503,0.948 -2.355,1.192c0,0 3.724,4.801 3.724,4.801c0.342,0.391 0.524,0.931 0.339,1.437c-0.251,0.685 -1.077,1.109 -1.771,0.892c-0.33,-0.103 -0.608,-0.332 -0.821,-0.609l-4.603,-5.981l-4.135,0Zm0,-8.526l0,5.894c1.585,0 3.17,0.009 4.755,0c1.344,-0.014 2.792,-0.431 3.461,-1.614c0.66,-1.167 0.385,-2.835 -0.762,-3.605c-0.771,-0.519 -1.752,-0.67 -2.7,-0.675c-1.585,-0.003 -3.169,0 -4.754,0Z" style="fill:#fff;fill-rule:nonzero;"/><path d="M474.152,94.7c2.607,0.011 5.198,1.148 6.857,3.132c2.413,2.885 2.79,7.282 0.959,10.595c-2.233,4.041 -7.865,5.94 -12.324,3.486c-2.818,-1.551 -4.577,-4.739 -4.587,-8.005l0.464,-0.001l-0.464,0c0,-3.658 2.206,-7.24 5.691,-8.591c1.061,-0.412 2.198,-0.611 3.341,-0.616c0.021,-0.001 0.042,-0.001 0.063,0Zm-0.122,2.68c-2.272,0.021 -4.456,1.38 -5.438,3.483c-1.277,2.734 -0.591,6.344 1.801,8.213c2.164,1.692 5.542,1.643 7.639,-0.147c2.9,-2.475 2.96,-7.697 -0.145,-10.219c-1.073,-0.872 -2.455,-1.334 -3.857,-1.33Z" style="fill:#fff;fill-rule:nonzero;"/><path d="M518.716,94.868c0.726,0.014 1.366,0.644 1.383,1.406c0.013,2.956 0.005,5.913 0,8.869c-0.019,2.869 -1.112,5.951 -4.152,7.23c-1.141,0.48 -2.397,0.651 -3.629,0.615c-2.736,-0.079 -5.441,-1.516 -6.529,-4.23c-0.447,-1.116 -0.618,-2.338 -0.621,-3.529l0.464,-0.001l-0.464,0c0,-2.985 -0.026,-5.97 0,-8.954c0.015,-0.839 0.88,-1.576 1.739,-1.365c0.605,0.148 1.072,0.722 1.086,1.365c0.013,2.958 -0.007,5.916 0,8.874c0.012,1.831 0.541,3.797 2.409,4.696c0.799,0.385 1.694,0.5 2.569,0.462c1.372,-0.06 2.776,-0.615 3.551,-1.895c0.57,-0.939 0.745,-2.064 0.752,-3.142c0.004,-2.999 -0.026,-5.997 0,-8.995c0.013,-0.749 0.653,-1.411 1.442,-1.406Z" style="fill:#fff;fill-rule:nonzero;"/><path d="M545.701,106.796c0,1.549 0.007,3.098 0,4.647c-0.002,0.101 -0.006,0.122 -0.014,0.18c-0.117,0.83 -1.085,1.455 -1.908,1.131c-0.522,-0.206 -0.89,-0.74 -0.903,-1.311c-0.021,-5.017 -0.021,-10.033 0,-15.049c0.016,-0.729 0.626,-1.391 1.383,-1.406c1.806,-0.012 3.613,-0.004 5.42,0c1.818,0.012 3.668,0.442 5.041,1.725c2.491,2.327 2.201,6.932 -0.917,8.907c-1.326,0.84 -2.922,1.173 -4.481,1.176l-3.621,0Zm0,-9.127l0,6.47c1.251,0 2.502,0.008 3.753,0c0.31,-0.003 0.62,-0.025 0.927,-0.072c0.116,-0.017 0.231,-0.038 0.346,-0.063c0.974,-0.211 1.949,-0.737 2.448,-1.63c0.749,-1.34 0.386,-3.246 -0.983,-4.076c-0.785,-0.475 -1.741,-0.624 -2.673,-0.629c-1.273,-0.002 -2.545,0 -3.818,0Z" style="fill:#fff;fill-rule:nonzero;"/></svg>