<?xml version="1.0" encoding="utf-8"?>
<!-- Generator: Adobe Illustrator 23.0.1, SVG Export Plug-In . SVG Version: 6.00 Build 0)  -->
<svg version="1.2" baseProfile="tiny" id="레이어_1"
	 xmlns="http://www.w3.org/2000/svg" xmlns:xlink="http://www.w3.org/1999/xlink" x="0px" y="0px" width="520px" height="120px"
	 viewBox="0 0 520 120" xml:space="preserve">
<g>
	<path fill="#5F4699" d="M101.67,10H35c-13.81,0-25,11.19-25,25v50c0,13.81,11.19,25,25,25h66.67c13.81,0,25-11.19,25-25V35
		C126.67,21.19,115.47,10,101.67,10z M104.44,89.17l-13.88,0c0,0,0-0.01,0-0.01c0-7.4-6-13.39-13.39-13.39s-13.39,6-13.39,13.39
		c0,0,0,0.01,0,0.01l-13.88,0c0,0-1.16-12.8-1.74-13.9c-0.58-1.11-1.9-1.71-3.9-1.42c-1.72,0.25-6.8,4.83-13.54,5.4l-1.89-4.36
		c0,0,4.55-1.36,5.63-6.31c0.36-1.67-0.79-5.75-2.53-10.02c-1.74-4.27-2.73-10.72,1.19-16.81C41.13,29.3,63.44,29.92,77.17,32
		c8.63,1.31,22.36,6.16,28.29,22.42C111.38,70.68,104.44,89.17,104.44,89.17z"/>
	<g>
		<g>
			<path fill="#5F4699" d="M177.71,66.74V45.09l-6.89,15.22h-6.02l-6.89-15.22v21.64h-11.28V25.65h12.33l8.85,19.33l8.91-19.33H189
				v41.09H177.71z"/>
			<path fill="#5F4699" d="M213.13,67.08c-3.13,0-5.96-0.6-8.51-1.79c-2.55-1.2-4.73-2.77-6.54-4.72c-1.81-1.95-3.22-4.18-4.22-6.68
				c-1-2.51-1.5-5.09-1.5-7.75c0-2.7,0.52-5.3,1.56-7.81c1.04-2.51,2.5-4.72,4.37-6.63c1.87-1.91,4.09-3.43,6.65-4.57
				c2.57-1.14,5.37-1.71,8.42-1.71c3.13,0,5.96,0.6,8.51,1.79c2.55,1.2,4.73,2.78,6.54,4.75c1.81,1.97,3.21,4.21,4.2,6.71
				c0.98,2.51,1.48,5.07,1.48,7.7c0,2.7-0.52,5.29-1.56,7.78c-1.04,2.49-2.49,4.69-4.34,6.6c-1.85,1.91-4.06,3.44-6.63,4.6
				C218.98,66.5,216.18,67.08,213.13,67.08z M203.81,46.25c0,1.39,0.19,2.73,0.58,4.02c0.39,1.29,0.96,2.44,1.74,3.44
				c0.77,1,1.75,1.81,2.92,2.43c1.18,0.62,2.58,0.93,4.2,0.93s3.03-0.32,4.22-0.95c1.2-0.64,2.17-1.47,2.92-2.49
				c0.75-1.02,1.31-2.19,1.68-3.5c0.37-1.31,0.55-2.64,0.55-3.99c0-1.39-0.19-2.73-0.58-4.02c-0.39-1.29-0.97-2.43-1.77-3.41
				c-0.79-0.98-1.77-1.77-2.95-2.37c-1.18-0.6-2.56-0.9-4.14-0.9c-1.62,0-3.02,0.31-4.2,0.93c-1.18,0.62-2.15,1.44-2.92,2.46
				c-0.77,1.02-1.34,2.18-1.71,3.47C203.99,43.58,203.81,44.9,203.81,46.25z"/>
			<path fill="#5F4699" d="M237.43,66.74V25.65h15.8c3.39,0,6.38,0.54,8.97,1.62c2.58,1.08,4.75,2.55,6.48,4.4
				c1.74,1.85,3.05,4.02,3.94,6.51c0.89,2.49,1.33,5.14,1.33,7.96c0,3.13-0.49,5.95-1.48,8.48c-0.98,2.53-2.38,4.69-4.2,6.48
				c-1.81,1.79-3.99,3.18-6.54,4.17c-2.55,0.98-5.38,1.48-8.51,1.48H237.43z M262.49,46.13c0-1.58-0.21-3.03-0.64-4.34
				c-0.43-1.31-1.03-2.43-1.82-3.36c-0.79-0.93-1.77-1.65-2.92-2.17c-1.16-0.52-2.45-0.78-3.88-0.78h-4.51V56.9h4.51
				c1.47,0,2.78-0.27,3.93-0.81c1.16-0.54,2.13-1.29,2.92-2.26c0.79-0.96,1.39-2.1,1.79-3.41
				C262.29,49.11,262.49,47.68,262.49,46.13z"/>
			<path fill="#5F4699" d="M306.7,56.9v9.84h-29.28V25.65h28.76v9.84h-17.48v5.79h14.93v9.14h-14.93v6.48H306.7z"/>
			<path fill="#5F4699" d="M310.52,66.74V25.65h18.87c2.01,0,3.86,0.41,5.56,1.24c1.7,0.83,3.15,1.91,4.37,3.24
				c1.22,1.33,2.17,2.86,2.86,4.57c0.69,1.72,1.04,3.44,1.04,5.18c0,2.39-0.52,4.62-1.56,6.68c-1.04,2.06-2.49,3.75-4.34,5.06
				l8.68,15.1h-12.73l-7.23-12.62h-4.22v12.62H310.52z M321.81,44.28h7.12c0.69,0,1.34-0.39,1.94-1.16c0.6-0.77,0.9-1.85,0.9-3.24
				c0-1.43-0.35-2.52-1.04-3.27c-0.69-0.75-1.39-1.13-2.08-1.13h-6.83V44.28z"/>
			<path fill="#5F4699" d="M359.42,46.54v20.2h-11.28V25.65h8.8l16.49,20.89V25.65h11.28v41.09h-8.97L359.42,46.54z"/>
			<path fill="#5F4699" d="M419.61,27.73c1.68,0,3.24,0.35,4.64,1.03c1.45,0.71,2.72,1.64,3.75,2.77c1.04,1.14,1.87,2.47,2.47,3.95
				c0.59,1.46,0.89,2.94,0.89,4.4c0,1.55-0.28,3.08-0.85,4.55c-0.56,1.48-1.36,2.8-2.36,3.94c-0.98,1.11-2.2,2.01-3.61,2.68
				c-1.39,0.66-2.95,0.99-4.64,0.99h-6.71h-2.08v2.08v10.53h-7.12V27.73H419.61 M411.1,46.37h2.08h5.96c0.89,0,2.2-0.28,3.46-1.61
				c0.98-1.05,1.46-2.64,1.46-4.87c0-2.34-0.57-3.99-1.74-5.03c-1.08-0.96-2.25-1.45-3.47-1.45h-5.67h-2.08v2.08v8.8V46.37
				 M419.61,25.65H401.9v41.09h11.28V54.12h6.71c2.01,0,3.85-0.4,5.53-1.19c1.68-0.79,3.11-1.85,4.28-3.18
				c1.18-1.33,2.09-2.85,2.75-4.57c0.66-1.72,0.98-3.48,0.98-5.3c0-1.74-0.35-3.46-1.04-5.18c-0.69-1.72-1.65-3.24-2.86-4.57
				c-1.22-1.33-2.67-2.41-4.37-3.24C423.46,26.06,421.61,25.65,419.61,25.65L419.61,25.65z M413.18,44.28v-8.8h5.67
				c0.69,0,1.39,0.31,2.08,0.93c0.69,0.62,1.04,1.77,1.04,3.47c0,1.66-0.3,2.81-0.9,3.44c-0.6,0.64-1.24,0.95-1.94,0.95H413.18
				L413.18,44.28z"/>
			<path fill="#5F4699" d="M470.76,27.73v36.92h-7.12v-14v-2.08h-2.08h-13.77h-2.08v2.08v14h-7.12V27.73h7.12v13.08v2.08h2.08h13.77
				h2.08v-2.08V27.73H470.76 M472.85,25.65h-11.28v15.16h-13.77V25.65H436.5v41.09h11.28V50.65h13.77v16.09h11.28V25.65
				L472.85,25.65z"/>
			<path fill="#5F4699" d="M496.17,27.73c1.68,0,3.24,0.35,4.64,1.03c1.45,0.71,2.72,1.64,3.75,2.77c1.04,1.14,1.87,2.47,2.47,3.95
				c0.59,1.46,0.89,2.94,0.89,4.4c0,1.55-0.28,3.08-0.85,4.55c-0.56,1.48-1.36,2.8-2.36,3.94c-0.98,1.11-2.2,2.01-3.61,2.68
				c-1.39,0.66-2.95,0.99-4.64,0.99h-6.71h-2.08v2.08v10.53h-7.12V27.73H496.17 M487.66,46.37h2.08h5.96c0.89,0,2.2-0.28,3.46-1.61
				c0.98-1.05,1.46-2.64,1.46-4.87c0-2.34-0.57-3.99-1.74-5.03c-1.08-0.96-2.25-1.45-3.47-1.45h-5.67h-2.08v2.08v8.8V46.37
				 M496.17,25.65h-17.71v41.09h11.28V54.12h6.71c2.01,0,3.85-0.4,5.53-1.19c1.68-0.79,3.11-1.85,4.28-3.18
				c1.18-1.33,2.09-2.85,2.75-4.57c0.66-1.72,0.98-3.48,0.98-5.3c0-1.74-0.35-3.46-1.04-5.18c-0.69-1.72-1.65-3.24-2.86-4.57
				c-1.22-1.33-2.67-2.41-4.37-3.24C500.03,26.06,498.17,25.65,496.17,25.65L496.17,25.65z M489.75,44.28v-8.8h5.67
				c0.69,0,1.39,0.31,2.08,0.93c0.69,0.62,1.04,1.77,1.04,3.47c0,1.66-0.3,2.81-0.9,3.44c-0.6,0.64-1.24,0.95-1.94,0.95H489.75
				L489.75,44.28z"/>
		</g>
		<g>
			<path fill="#5F4699" d="M183.13,88.26v-7.71c0-0.46,0.37-0.83,0.81-0.83c0.46,0,0.83,0.37,0.83,0.83v7.6
				c0,3.13,1.68,4.89,4.43,4.89c2.67,0,4.37-1.62,4.37-4.79v-7.71c0-0.46,0.37-0.83,0.83-0.83c0.43,0,0.81,0.37,0.81,0.83v7.58
				c0,4.23-2.42,6.42-6.05,6.42C185.57,94.56,183.13,92.37,183.13,88.26z"/>
			<path fill="#5F4699" d="M215.14,92.59c-0.19-0.12-0.31-0.35-0.31-0.62c0-0.46,0.35-0.81,0.79-0.81c0.21,0,0.39,0.08,0.5,0.19
				c1.37,1.16,2.73,1.72,4.58,1.72c1.95,0,3.23-1.04,3.23-2.47v-0.04c0-1.35-0.73-2.11-3.77-2.76c-3.34-0.73-4.87-1.8-4.87-4.19
				v-0.04c0-2.28,2.01-3.96,4.77-3.96c1.91,0,3.29,0.48,4.62,1.43c0.17,0.12,0.35,0.35,0.35,0.66c0,0.43-0.35,0.79-0.79,0.79
				c-0.19,0-0.33-0.04-0.48-0.14c-1.22-0.89-2.4-1.26-3.75-1.26c-1.89,0-3.09,1.04-3.09,2.34v0.04c0,1.37,0.75,2.13,3.94,2.82
				c3.23,0.7,4.72,1.89,4.72,4.1v0.04c0,2.49-2.07,4.1-4.95,4.1C218.51,94.54,216.75,93.88,215.14,92.59z"/>
			<path fill="#5F4699" d="M245.49,93.51V80.66c0-0.46,0.37-0.83,0.81-0.83h9.01c0.41,0,0.75,0.33,0.75,0.75s-0.33,0.75-0.75,0.75
				h-8.18v4.95h7.25c0.41,0,0.75,0.35,0.75,0.75c0,0.41-0.33,0.75-0.75,0.75h-7.25v5.08h8.29c0.41,0,0.75,0.33,0.75,0.75
				c0,0.41-0.33,0.75-0.75,0.75h-9.12C245.86,94.33,245.49,93.96,245.49,93.51z"/>
			<path fill="#5F4699" d="M275.94,80.66c0-0.46,0.37-0.83,0.81-0.83h5.43c1.78,0,3.21,0.54,4.12,1.45c0.7,0.7,1.12,1.72,1.12,2.86
				v0.04c0,2.38-1.62,3.77-3.87,4.21l3.61,4.64c0.17,0.19,0.27,0.37,0.27,0.6c0,0.44-0.41,0.81-0.83,0.81
				c-0.33,0-0.58-0.19-0.77-0.43l-4.08-5.3h-4.16v4.91c0,0.46-0.37,0.83-0.83,0.83c-0.43,0-0.81-0.37-0.81-0.83V80.66z
				 M282.03,87.23c2.18,0,3.73-1.12,3.73-2.98V84.2c0-1.78-1.37-2.86-3.71-2.86h-4.48v5.88H282.03z"/>
			<path fill="#5F4699" d="M329.64,87.12v-0.04c0-3.98,2.92-7.5,7.27-7.5c2.2,0,3.63,0.58,4.95,1.55c0.19,0.14,0.33,0.37,0.33,0.66
				c0,0.46-0.37,0.83-0.81,0.83c-0.19,0-0.35-0.08-0.52-0.21c-1.04-0.79-2.2-1.33-4.02-1.33c-3.21,0-5.51,2.71-5.51,5.95v0.04
				c0,3.46,2.22,6.03,5.74,6.03c1.66,0,3.19-0.64,4.19-1.45v-3.6h-3.89c-0.39,0-0.73-0.33-0.73-0.73c0-0.41,0.33-0.75,0.73-0.75
				h4.66c0.44,0,0.81,0.37,0.81,0.83v4.41c0,0.39-0.19,0.75-0.56,0.99c-1.33,0.97-3.11,1.76-5.26,1.76
				C332.46,94.58,329.64,91.27,329.64,87.12z"/>
			<path fill="#5F4699" d="M363.1,80.66c0-0.46,0.37-0.83,0.81-0.83h5.43c1.78,0,3.21,0.54,4.12,1.45c0.7,0.7,1.12,1.72,1.12,2.86
				v0.04c0,2.38-1.62,3.77-3.87,4.21l3.6,4.64c0.17,0.19,0.27,0.37,0.27,0.6c0,0.44-0.41,0.81-0.83,0.81
				c-0.33,0-0.58-0.19-0.77-0.43l-4.08-5.3h-4.16v4.91c0,0.46-0.37,0.83-0.83,0.83c-0.43,0-0.81-0.37-0.81-0.83V80.66z
				 M369.19,87.23c2.18,0,3.73-1.12,3.73-2.98V84.2c0-1.78-1.37-2.86-3.71-2.86h-4.48v5.88H369.19z"/>
			<path fill="#5F4699" d="M394,87.12v-0.04c0-4,3-7.5,7.42-7.5c4.41,0,7.38,3.46,7.38,7.46v0.04c0,4-3,7.5-7.42,7.5
				S394,91.12,394,87.12z M407.1,87.12v-0.04c0-3.29-2.4-5.99-5.72-5.99c-3.31,0-5.68,2.65-5.68,5.95v0.04
				c0,3.29,2.4,5.99,5.72,5.99C404.74,93.07,407.1,90.42,407.1,87.12z"/>
			<path fill="#5F4699" d="M428.6,88.26v-7.71c0-0.46,0.37-0.83,0.81-0.83c0.46,0,0.83,0.37,0.83,0.83v7.6
				c0,3.13,1.68,4.89,4.43,4.89c2.67,0,4.37-1.62,4.37-4.79v-7.71c0-0.46,0.37-0.83,0.83-0.83c0.44,0,0.81,0.37,0.81,0.83v7.58
				c0,4.23-2.42,6.42-6.05,6.42C431.05,94.56,428.6,92.37,428.6,88.26z"/>
			<path fill="#5F4699" d="M461.13,80.66c0-0.46,0.37-0.83,0.81-0.83h4.62c3.27,0,5.43,1.74,5.43,4.6v0.04
				c0,3.13-2.61,4.74-5.7,4.74h-3.52v4.39c0,0.46-0.37,0.83-0.83,0.83c-0.43,0-0.81-0.37-0.81-0.83V80.66z M466.35,87.73
				c2.4,0,3.98-1.28,3.98-3.19v-0.04c0-2.07-1.55-3.15-3.89-3.15h-3.67v6.38H466.35z"/>
		</g>
	</g>
</g>
</svg>
